<?xml version="1.0" encoding="utf-8"?>
<!-- Generator: Adobe Illustrator 16.0.0, SVG Export Plug-In . SVG Version: 6.00 Build 0)  -->
<!DOCTYPE svg PUBLIC "-//W3C//DTD SVG 1.1//EN" "http://www.w3.org/Graphics/SVG/1.1/DTD/svg11.dtd">
<svg version="1.1" id="Layer_2" xmlns="http://www.w3.org/2000/svg" xmlns:xlink="http://www.w3.org/1999/xlink" x="0px" y="0px"
	 width="716.998px" height="276.43px" viewBox="0 0 716.998 276.43" enable-background="new 0 0 716.998 276.43"
	 xml:space="preserve">
<path fill="#D0006F" d="M247.828,194.144l17.914,27.479c0,0,233.403-72.494,249.371-180.885L492.341,5.521
	c0,0-17.164-21.743-61.528,21.07c0,0-73.502,79.48-44.306,151.678c0,0,25.525,61.731,75.467,98.16l-7.737-20.026
	c0,0-58.75-26.624-57.849-84.439c0,0,18.349-130.291,99.261-146.18C495.649,25.784,474.704,124.222,247.828,194.144z"/>
<g>
	<g>
		<path fill="#53565A" d="M63.291,113.005c0,13.063-10.01,22.737-23.586,22.737H13.235V90.944h26.303
			C53.454,90.944,63.291,100.451,63.291,113.005 M35.297,79.068H13.235v-37.16h22.232c11.196,0,19.175,7.978,19.175,18.494
			C54.642,71.092,46.495,79.068,35.297,79.068 M52.774,83.646c9.5-3.729,15.1-12.383,15.1-23.752
			c0-17.477-13.913-30.204-31.727-30.204H0v118.27h40.556c20.704,0,35.971-14.932,35.971-34.955
			C76.527,98.241,68.383,86.873,52.774,83.646"/>
		<path fill="#53565A" d="M284.172,135.074c-15.877,1.194-22.983-6.808-25.806-11.679c-3.422-5.907-8.831-15.885-12.885-23.441
			c1.877-0.359,3.851-0.841,5.726-1.481c13.089-5.162,22.299-17.818,22.299-33.491c0-20.361-15.95-35.292-35.468-35.292h-40.386
			v118.27h13.236v-46.836h20.201c3.993,7.49,11.396,21.277,15.82,28.911c3.315,5.721,13.049,18.402,34.116,18.402
			c1.332,0,2.711-0.052,4.135-0.158L284.172,135.074z M210.888,41.908h26.639c13.073,0,22.738,10.009,22.738,23.074
			c0,13.748-10.009,23.93-23.583,23.93h-25.794V41.908z"/>
	</g>
	<g>
		<path fill="#53565A" d="M142.276,138.117c-27.827,0-48.361-21.041-48.361-49.205c0-28.167,20.534-49.213,48.361-49.213
			c14.144,0,26.158,5.336,34.74,14.408l8.564-8.565c-11.056-11.366-26.115-18.056-43.304-18.056
			c-34.107,0-61.596,25.962-61.596,61.426c0,35.462,27.488,61.425,61.596,61.425c16.901,0,32.184-6.617,43.248-18.074l-8.552-8.553
			C168.366,132.861,156.122,138.117,142.276,138.117z"/>
	</g>
	<polygon fill="#53565A" points="296.021,148.199 309.253,148.199 309.253,92.542 361.905,92.542 361.905,80.323 309.253,80.323 
		309.253,42.147 369.864,42.147 369.864,29.929 296.021,29.929 	"/>
</g>
<g>
	<path fill="#53565A" d="M564.712,62.15h8.85c4.362,0,7.768,3.116,7.768,7.395c0,2.783-1.371,4.901-3.697,5.816
		c3.821,0.789,5.816,3.573,5.816,7.187c0,4.902-3.74,8.557-8.807,8.557h-9.93V62.15z M573.353,74.239
		c2.743,0,4.736-1.953,4.736-4.57c0-2.575-1.953-4.529-4.694-4.529h-5.442v9.099H573.353z M574.435,88.114
		c3.321,0,5.773-2.368,5.773-5.566c0-3.074-2.409-5.401-5.814-5.401h-6.441v10.967H574.435z"/>
	<path fill="#53565A" d="M589.842,62.15h9.888c4.777,0,8.683,3.656,8.683,8.642c0,3.862-2.285,6.978-5.525,8.225l6.979,12.089
		h-3.697l-6.522-11.465h-0.04h-6.523v11.465h-3.24V62.15z M599.397,76.648c3.323,0,5.774-2.491,5.774-5.856
		c0-3.199-2.367-5.651-5.565-5.651h-6.523v11.507H599.397z"/>
	<path fill="#53565A" d="M616.383,62.15h16.368v2.991h-13.129v9.181h12.34v2.992h-12.34v10.801h13.42v2.991h-16.659V62.15z"/>
	<path fill="#53565A" d="M649.407,62.15h2.493l12.255,28.955h-3.488l-2.992-7.145h-14.042l-2.991,7.145h-3.489L649.407,62.15z
		 M656.428,80.969l-5.774-13.792l-5.775,13.792H656.428z"/>
	<path fill="#53565A" d="M668.969,83.462c1.287,3.115,3.572,5.234,7.27,5.234c5.276,0,5.815-3.615,5.815-5.11
		c0-3.449-2.41-4.653-6.48-6.439c-4.404-1.952-7.603-3.656-7.603-8.35c0-4.154,3.364-7.187,7.935-7.187
		c3.697,0,6.189,1.621,7.81,4.611l-2.782,1.414c-1.08-2.036-2.575-3.033-5.069-3.033c-2.532,0-4.652,1.704-4.652,4.113
		c0,3.116,2.409,4.113,5.899,5.691c5.318,2.368,8.184,4.278,8.184,9.14c0,4.611-3.156,8.142-9.097,8.142
		c-4.446,0-8.269-2.16-10.013-6.937L668.969,83.462z"/>
	<path fill="#53565A" d="M696.59,65.141h-7.892V62.15h19.025v2.991h-7.894v25.964h-3.24V65.141z"/>
	<path fill="#53565A" d="M552.67,102.517c4.443,0,8.307,1.828,11.049,4.903l-2.202,1.994c-2.119-2.452-5.193-3.906-8.847-3.906
		c-6.815,0-11.841,5.152-11.841,12.047c0,6.897,5.025,12.048,11.841,12.048c3.653,0,6.853-1.496,8.972-4.07l2.2,1.993
		c-2.741,3.199-6.729,5.067-11.172,5.067c-8.352,0-15.083-6.356-15.083-15.038C537.587,108.874,544.319,102.517,552.67,102.517z"/>
	<path fill="#53565A" d="M579.417,103.057h2.491l12.257,28.956h-3.491l-2.989-7.145h-14.042l-2.99,7.145h-3.49L579.417,103.057z
		 M586.438,121.877l-5.774-13.792l-5.774,13.792H586.438z"/>
	<path fill="#53565A" d="M599.145,103.057h2.827l17.488,23.18v-23.18h3.24v28.956h-2.617l-17.699-23.431v23.431h-3.239V103.057z"/>
	<path fill="#53565A" d="M643.26,102.517c4.444,0,8.309,1.828,11.05,4.903l-2.203,1.994c-2.117-2.452-5.191-3.906-8.847-3.906
		c-6.814,0-11.84,5.152-11.84,12.047c0,6.897,5.025,12.048,11.84,12.048c3.655,0,6.853-1.496,8.973-4.07l2.201,1.993
		c-2.742,3.199-6.729,5.067-11.174,5.067c-8.35,0-15.081-6.356-15.081-15.038C628.179,108.874,634.911,102.517,643.26,102.517z"/>
	<path fill="#53565A" d="M660.952,103.057h16.368v2.991h-13.129v9.181h12.339v2.991h-12.339v10.801h13.42v2.991h-16.659V103.057z"/>
	<path fill="#53565A" d="M685.126,103.057h9.888c4.777,0,8.683,3.656,8.683,8.641c0,3.865-2.285,6.979-5.525,8.226l6.978,12.089
		h-3.696l-6.523-11.466h-0.04h-6.522v11.466h-3.24V103.057z M694.681,117.556c3.322,0,5.774-2.492,5.774-5.858
		c0-3.198-2.366-5.649-5.566-5.649h-6.522v11.507H694.681z"/>
	<path fill="#53565A" d="M495.099,143.966h9.887c4.777,0,8.684,3.655,8.684,8.642c0,3.862-2.285,6.977-5.525,8.224l6.978,12.089
		h-3.697l-6.522-11.466h-0.04h-6.523v11.466h-3.239V143.966z M504.654,158.464c3.323,0,5.773-2.491,5.773-5.856
		c0-3.2-2.367-5.651-5.565-5.651h-6.523v11.508H504.654z"/>
	<path fill="#53565A" d="M521.267,143.966h16.367v2.99h-13.126v9.181h12.337v2.992h-12.337v10.801h13.417v2.99h-16.658V143.966z"/>
	<path fill="#53565A" d="M545.732,165.276c1.287,3.114,3.573,5.235,7.27,5.235c5.276,0,5.815-3.615,5.815-5.111
		c0-3.447-2.408-4.651-6.48-6.438c-4.404-1.954-7.602-3.657-7.602-8.351c0-4.155,3.364-7.188,7.936-7.188
		c3.695,0,6.189,1.621,7.809,4.611l-2.783,1.412c-1.081-2.036-2.576-3.032-5.069-3.032c-2.533,0-4.65,1.704-4.65,4.113
		c0,3.116,2.407,4.113,5.897,5.691c5.317,2.367,8.183,4.279,8.183,9.139c0,4.612-3.155,8.142-9.097,8.142
		c-4.445,0-8.267-2.159-10.011-6.938L545.732,165.276z"/>
	<path fill="#53565A" d="M568.908,143.966h16.368v2.99h-13.128v9.181h12.337v2.992h-12.337v10.801h13.418v2.99h-16.658V143.966z"/>
	<path fill="#53565A" d="M603.219,143.966h2.492l12.256,28.954h-3.49l-2.99-7.146h-14.043l-2.99,7.146h-3.49L603.219,143.966z
		 M610.24,162.784l-5.774-13.793l-5.774,13.793H610.24z"/>
	<path fill="#53565A" d="M623.403,143.966h9.889c4.778,0,8.684,3.655,8.684,8.642c0,3.862-2.286,6.977-5.526,8.224l6.979,12.089
		h-3.699l-6.521-11.466h-0.041h-6.524v11.466h-3.24V143.966z M632.959,158.464c3.323,0,5.774-2.491,5.774-5.856
		c0-3.2-2.369-5.651-5.566-5.651h-6.524v11.508H632.959z"/>
	<path fill="#53565A" d="M661.952,143.425c4.444,0,8.309,1.829,11.051,4.904l-2.202,1.992c-2.119-2.452-5.192-3.905-8.849-3.905
		c-6.813,0-11.84,5.152-11.84,12.048s5.026,12.048,11.84,12.048c3.656,0,6.855-1.497,8.973-4.073l2.201,1.995
		c-2.741,3.199-6.729,5.067-11.174,5.067c-8.35,0-15.08-6.356-15.08-15.037C646.872,149.781,653.602,143.425,661.952,143.425z"/>
	<path fill="#53565A" d="M679.27,143.966h3.24v12.089h16.077v-12.089h3.24v28.954h-3.24v-13.875H682.51v13.875h-3.24V143.966z"/>
	<path fill="#53565A" d="M436.781,184.873h15.122v2.99h-11.881v9.348h10.843v2.991h-10.843v13.627h-3.241V184.873z"/>
	<path fill="#53565A" d="M471.757,184.333c8.35,0,15.08,6.356,15.08,15.037c0,8.684-6.73,15.039-15.08,15.039
		s-15.081-6.355-15.081-15.039C456.676,190.689,463.408,184.333,471.757,184.333z M471.757,211.419
		c6.812,0,11.839-5.151,11.839-12.049c0-6.896-5.026-12.046-11.839-12.046c-6.813,0-11.882,5.15-11.882,12.046
		C459.875,206.268,464.944,211.419,471.757,211.419z"/>
	<path fill="#53565A" d="M492.108,184.873h3.241v18.486c0,5.317,2.991,7.977,7.602,7.977c4.611,0,7.604-2.659,7.604-7.977v-18.486
		h3.238v18.818c0,7.021-4.609,10.637-10.842,10.637c-6.23,0-10.843-3.615-10.843-10.637V184.873z"/>
	<path fill="#53565A" d="M521.765,184.873h2.824l17.49,23.181v-23.181h3.24v28.956h-2.618l-17.696-23.432v23.432h-3.24V184.873z"/>
	<path fill="#53565A" d="M553.499,184.873h9.306c9.39,0,14.957,5.939,14.957,14.497c0,8.559-5.526,14.459-14.915,14.459h-9.348
		V184.873z M562.597,210.838c8.06,0,11.922-4.736,11.922-11.468c0-6.77-3.862-11.507-11.963-11.507h-5.817v22.975H562.597z"/>
	<path fill="#53565A" d="M591.589,184.873h2.493l12.255,28.956h-3.489l-2.991-7.146h-14.042l-2.991,7.146h-3.488L591.589,184.873z
		 M598.61,203.692l-5.773-13.792l-5.775,13.792H598.61z"/>
	<path fill="#53565A" d="M613.934,187.863h-7.894v-2.99h19.027v2.99h-7.894v25.966h-3.24V187.863z"/>
	<path fill="#53565A" d="M632.083,184.873h3.242v28.956h-3.242V184.873z"/>
	<path fill="#53565A" d="M656.885,184.333c8.349,0,15.078,6.356,15.078,15.037c0,8.684-6.729,15.039-15.078,15.039
		c-8.352,0-15.082-6.355-15.082-15.039C641.803,190.689,648.534,184.333,656.885,184.333z M656.885,211.419
		c6.812,0,11.84-5.151,11.84-12.049c0-6.896-5.028-12.046-11.84-12.046c-6.815,0-11.882,5.15-11.882,12.046
		C645.003,206.268,650.07,211.419,656.885,211.419z"/>
	<path fill="#53565A" d="M678.272,184.873h2.824l17.49,23.181v-23.181h3.24v28.956h-2.616l-17.697-23.432v23.432h-3.241V184.873z"/>
</g>
</svg>
