<svg id="Capa_1" enable-background="new 0 0 512 512" height="512" viewBox="0 0 512 512" width="512" xmlns="http://www.w3.org/2000/svg"><g><g><g><path d="m450.058 110.342v136.232c-.652-.798-1.349-1.572-2.092-2.317-12.125-12.148-31.783-12.148-43.908 0l-91.974 92.154c-17.506 17.541-27.341 41.331-27.341 66.137v109.452h47.811 47.422v-56.198l111.846-113.693c12.929-13.143 20.178-30.857 20.178-49.313v-182.454c0-17.138-13.866-31.032-30.971-31.032-17.105.001-30.971 13.894-30.971 31.032z" fill="#edbdab"/><path d="m454.939 270.567c0-8.382-1.634-16.131-4.882-23.992-.652-.798-1.349-1.572-2.092-2.317-10.92-10.941-27.947-12.023-40.081-3.258l6.269 6.281c12.813 12.838 12.815 33.73 0 46.57l-41.365 41.446c-6.091 6.102-6.09 15.996 0 22.097 6.09 6.103 15.964 6.103 22.054 0l41.366-41.446c12.488-12.511 18.731-28.946 18.731-45.381z" fill="#de9382"/></g><g><path d="m61.942 110.342v136.232c.652-.798 1.349-1.572 2.092-2.317 12.125-12.148 31.783-12.148 43.908 0l91.974 92.154c17.506 17.541 27.341 41.331 27.341 66.137v109.452h-47.811-47.422v-56.198l-111.845-113.693c-12.93-13.143-20.179-30.857-20.179-49.313v-182.454c0-17.138 13.866-31.032 30.971-31.032 17.105.001 30.971 13.894 30.971 31.032z" fill="#f5dfbb"/><path d="m57.061 270.567c0-8.382 1.634-16.131 4.882-23.992.652-.798 1.349-1.572 2.092-2.317 10.92-10.941 27.947-12.023 40.081-3.258l-6.269 6.281c-12.813 12.838-12.815 33.73 0 46.57l41.365 41.446c6.091 6.102 6.09 15.996 0 22.097-6.09 6.103-15.964 6.103-22.054 0l-41.366-41.446c-12.488-12.511-18.731-28.946-18.731-45.381z" fill="#de9382"/></g></g><g><path d="m323.07 0c-30.991 0-57.284 19.82-67.07 47.441-9.786-27.621-36.079-47.441-67.069-47.441-39.328 0-70.938 31.863-71.21 71.167-.427 61.719 102.059 124.377 130.843 140.753 4.613 2.624 10.253 2.617 14.858-.021 28.645-16.409 130.429-79.04 130.857-140.732.273-39.304-31.882-71.167-71.209-71.167z" fill="#ff6378"/><path d="m323.07 0c-30.991 0-57.283 19.82-67.07 47.441 0 0 0 0 0-.001v166.443c2.561-.004 5.121-.666 7.422-1.984 28.645-16.409 130.429-79.04 130.857-140.732.273-39.304-31.882-71.167-71.209-71.167z" fill="#c30047"/></g></g></svg>