<svg width="189" height="55" fill="none" xmlns="http://www.w3.org/2000/svg"><path d="M12.546 19.782c.109-2.11.472-4.146 1.272-6 .582-1.346 1.673-2.364 3.127-2.764 1.273 2.618 1.891 5.455 1.891 8.582.255 4.473-5.09 8.691-1.018 12.764C20 28.146 21.6 23.709 24.473 19.782c-4.837-3.855-6.727-9.855-6.073-15.964.073-.545.218-1.345 1.018-1.163 3.928 4.363 7.6 9.018 6.946 14.945.8 0 .945-.945 1.454-1.418-.982-6.11 1.2-11.527 4.582-16.182H0v8.8c5.236 2.073 10.327 5.71 12.546 10.982zM36.182 3.636c.036 2.728-1.091 5.382-1.891 7.382 2.873-1.454 6.073-3.382 9.636-2V0h-7.963c.145 1.236.29 2.29.218 3.636zm-1.891-2.8C33.309 4.91 32.001 8.8 30.764 12.8c3.673-2.655 4.254-7.49 3.527-11.964z" fill="#fff"/><path d="M29.673 13.018c1.309-3.745 2.582-7.89 2.945-11.563-2.254 3.345-3.527 7.49-2.945 11.563zm-8.582-.218c.764 1.273 1.854 3.2 2.945 3.564A31.205 31.205 0 0119.2 5.818c-.29 2.691.945 5.2 1.891 6.982zm-.4-5.6c.873 3.382 3.418 6.29 4.582 9.346C24.546 13.127 23.09 10 20.69 7.2zm13.636 4.873c2.691-.182 5.855-.4 8.8-.582l.437-.4c-2.8-1.455-6.764-.836-9.237.982zM.836 12.4c1.346 3.564 5.346 6.91 8.982 8.146-2.582-3.237-6.073-5.2-8.982-8.146zm40.655 1.491c.8-.255 2.145-.473 2.11-1.418-3.02.363-6.437.072-8.983 1.018 2.364.436 4.291.836 6.873.4zM11.49 20.546c-1.454-3.31-5.2-6.437-8.58-7.746l5.635 4.982c1.091.727 1.782 2.29 2.946 2.764z" fill="#fff"/><path d="M15.018 30.145c-.909-1.818-.473-4.218-2.073-5.781C7.891 22.473 1.6 19.127 0 13.6v10.182c5.09 1.818 11.636 1.564 15.018 6.363zm.655-5.599h.218c.91-3.419 2.764-7.419.836-10.946-.654 3.527-1.309 7.31-1.054 10.946zm28.254-9.964c-1.818 1.2-4.618 1.382-6.472 1.2-2.691-.037-7.018-2.764-8.364.8.91-.473 1.964-.691 3.127-.582 1.091.145 1.491 1.2 1.273 2.182-1.018 1.127-2.11 2.873-3.964 2.4-1.09-.437-.618-1.673-1.018-2.182-.254-.218-.8 0-1.054.182-2.728 3.382-4.837 7.273-5.71 11.163 2.582-2.181 5.055-4.618 7.71-6.581 2.727-1.491 7.345-1.491 10.072 0-3.018 8.218-12.654 5.345-18.436 9.382-.946 4.763-2.255 9.454-2.91 14.363 1.092-.145 2.11-.472 2.91-1.2.982-4.073 2.654-8.182 6.473-10.763 1.709-1.055 2.945-3.128 4.8-3.782-.218 5.454-2.91 11.309-8.146 14.145l.218.182c5.273-1.309 10.546-2.69 16.51-2.4 1.054.145 2.254.327 2.945.836V14.582h.036zM14 23.782l.618.8c-.109-2.837.11-6.073.655-8.946C13.89 17.927 13.49 20.91 14 23.782z" fill="#fff"/><path d="M31.564 18.764l.218-.582c-.291-.582-1.31-.91-1.673-.182-.036.764.8.873 1.454.764zm-6.254 8.981c3.127-1.49 6.4-2.727 9.854-3.418v-.4c-3.964-.8-7.055 1.491-9.855 3.819zM11.09 48.473c-1.49-.8-.98-2.437-.654-3.2.546-.91 1.528-2.51 2.946-2.182 1.709.327.945 2.436 1.454 3.018.619-4.145 2.473-8.545.873-12.8-7.2.837-11.454-3.818-15.709-8.363v29.09h11.71c1.054-1.6 2.145-3.418 2.29-5.381 0-1.782-1.745.363-2.91-.182zM36.8 25.164l-.218-.219c-3.564 1.564-7.745 1.673-11.091 3.782 3.927-.872 8.655-.29 11.31-3.563zM4.4 26.546l-.255.181c3.273 1.455 6.437 3.164 10.073 3.782-2.873-2.254-6.509-2.8-9.818-3.963z" fill="#fff"/><path d="M12.327 30.91c-2.763-.146-4.836-1.928-7.309-2.765 1.782 2 4.837 2.982 7.31 2.764zm5.055 8c-1.673 4.872-.582 10.908-4.146 15.017h.619c3.818-7.127 4.254-15.709 6.29-23.6l-2.763 8.582zm12.291-4.183c-1.891 3.055-4.146 6.182-5.018 9.382 2.836-2.69 5.127-6 5.018-9.382zm-2.909 2.183c-1.637 1.963-3.237 4.363-3.164 6.581 1.382-2.073 2.4-4.69 3.164-6.582zm3.346 8.581l11.926.182c-3.927-1.746-7.781-.946-11.927-.182zm-18.183-.4l-.218 1.018c.364.473.836.69 1.49.582v-.8c-.108-.582-.763-.727-1.272-.8zm30.546 1.782l-11.491-.4c3.018 1.964 8.29 2.364 11.49.4z" fill="#fff"/><path d="M25.491 46.691c-3.527.364-6.873 2.036-8.982 4.764.364.036.618-.255.946-.473 1.345-.873 2.836-2.218 4.727-2.327 1.127.581 1.2 1.818.836 2.763-.836.837-1.6 2.51-3.127 2.182-.91-.545-.982-1.454-1.49-2.182l-2.728 2.4.218.182h28.036v-5.964c-5.09 3.6-13.163 1.091-18.436-1.345zm-7.927 1.782l.218.181 1.636-1.418c-.618.619-1.672.255-1.854 1.237z" fill="#fff"/><path d="M21.09 51.673l.4-.4c-.108-.582-.545-.727-1.017-.982-.691.582.436 1.09.618 1.382zM50.291 1.746v5.055c0 1.163.037 1.963.073 2.4.036.363.11.545.182.618.073.073.327.145.69.182l.474.036v.51c-.546-.037-1.019-.037-1.419-.037-.29 0-.981 0-2.036.036v-.473h.51c.326 0 .508-.036.617-.145.11-.073.146-.255.182-.51a32.33 32.33 0 00.073-2.181v-3.6c0-.691 0-1.346-.037-2.036 0-.291-.036-.473-.109-.582a1.098 1.098 0 00-.29-.291c-.11-.073-.291-.11-.546-.11h-.436V.147c.618.036 1.09.036 1.418.036.363 0 .727 0 1.163-.036.473.582.946 1.164 1.382 1.71.437.545.873 1.126 1.346 1.672l2.509 3.054c.909 1.09 1.563 1.854 1.963 2.29V4.22c0-1.964-.037-3.018-.11-3.2-.072-.182-.363-.291-.836-.364L56.51.62V.146c.763.036 1.381.036 1.818.036.436 0 1.018 0 1.745-.036v.473h-.545c-.437 0-.691.145-.764.436-.036.218-.073 1.273-.073 3.2v3.273c0 .873.037 1.927.11 3.163-.655-.109-1.019-.181-1.128-.218a.565.565 0 01-.29-.218c-.546-.618-1.128-1.273-1.71-2l-5.382-6.509zm15.564.327l1.818 4.363H64l1.855-4.363zm2.909 6.982c.145.363.218.581.218.69 0 .073-.036.146-.11.219-.035.036-.217.072-.472.072l-.727.037v.473c.873-.037 1.6-.037 2.145-.037.582 0 1.164 0 1.819.037v-.473c-.364-.037-.619-.073-.728-.11-.109-.036-.218-.145-.29-.254-.073-.109-.255-.473-.51-1.054L66.437.073h-.51c-.181.545-.545 1.418-1.09 2.618l-2 4.545c-.364.8-.728 1.564-1.055 2.255-.11.255-.218.4-.327.436-.11.073-.328.11-.655.11h-.218v.508c.545-.036 1.127-.036 1.855-.036.581 0 1.09 0 1.563.037v-.473L63.31 10c-.255-.036-.4-.073-.474-.109-.072-.036-.109-.146-.109-.255 0-.181.146-.654.473-1.418l.51-1.2h4.217l.837 2.037zM76.073.8A45.66 45.66 0 0076 3.09v4.183c0 1.563.037 2.4.11 2.545.072.146.363.255.836.255h.545v.473c-.873-.037-1.6-.037-2.182-.037-.618 0-1.345 0-2.182.037v-.473h.619c.327 0 .545-.037.618-.11.109-.072.145-.254.182-.508.036-.582.072-1.31.072-2.219V3.091c0-.836 0-1.564-.036-2.255h-.727c-1.2 0-1.855.037-1.964.073-.11.073-.218.291-.255.655l-.109.981h-.472v-.872c0-.364-.037-.873-.073-1.528C73.6.182 75.164.182 75.6.182l4.037-.037c-.11.837-.146 1.637-.182 2.4h-.473l-.073-.945c-.036-.327-.073-.51-.109-.582-.036-.073-.182-.109-.364-.109a26.104 26.104 0 00-1.818-.073h-.545V.8zm5.454 9.273H82c.436 0 .727-.11.8-.328.073-.218.146-1.272.146-3.127V4.145c0-1.927-.037-3.018-.11-3.2-.072-.181-.327-.29-.69-.29h-.582v-.51c.8.037 1.6.037 2.4.037.654 0 1.236 0 1.782-.037v.473H85.2c-.327 0-.545.037-.654.11-.073.072-.146.29-.146.617-.036.51-.036 1.455-.036 2.764v2.51c0 1.89.036 2.945.109 3.126.073.182.364.291.8.291h.473v.51c-.582-.037-1.237-.037-1.964-.037-.836 0-1.564 0-2.218.037v-.473h-.037zM88.4 2.545c.328-.618.764-1.09 1.346-1.418.582-.327 1.236-.472 2-.472.836 0 1.6.181 2.218.545a3.57 3.57 0 011.454 1.636c.364.728.546 1.6.546 2.655 0 .982-.146 1.818-.473 2.509-.327.691-.763 1.2-1.345 1.564a3.947 3.947 0 01-1.964.509c-.8 0-1.527-.218-2.182-.618-.618-.4-1.127-1.019-1.527-1.819-.364-.8-.582-1.781-.582-2.872.036-.837.182-1.564.51-2.219zm-1.309 5.637a4.564 4.564 0 001.818 1.89c.764.437 1.673.655 2.727.655 1.673 0 3.092-.545 4.182-1.636C96.91 8 97.491 6.655 97.491 5.018c0-1.49-.473-2.727-1.418-3.636-.945-.91-2.291-1.346-3.964-1.346C90.4.036 89.02.51 88 1.491c-1.018.982-1.564 2.254-1.564 3.854 0 1.055.219 2 .655 2.837zm13.164-6.437V6.8c0 1.164.036 1.964.072 2.4.037.364.11.545.182.618.073.073.328.146.691.182l.473.036v.51c-.546-.037-1.018-.037-1.418-.037-.291 0-.982 0-2.037.037v-.473h.51c.327 0 .509-.037.618-.146.109-.072.145-.254.181-.509.037-.545.073-1.273.073-2.182v-3.6c0-.69 0-1.345-.036-2.036 0-.29-.036-.473-.11-.582a1.1 1.1 0 00-.29-.29c-.11-.073-.291-.11-.546-.11h-.436V.145c.618.037 1.09.037 1.418.037.364 0 .727 0 1.164-.037.473.582.945 1.164 1.382 1.71.436.545.872 1.127 1.345 1.672L106 6.582a73.426 73.426 0 001.964 2.29V4.219c0-1.963-.036-3.018-.109-3.2-.073-.182-.364-.29-.837-.363l-.545-.037V.145c.764.037 1.382.037 1.818.037.437 0 1.018 0 1.746-.037v.473h-.546c-.436 0-.691.146-.763.437-.037.218-.073 1.272-.073 3.2v3.272c0 .873.036 1.928.109 3.164-.655-.11-1.018-.182-1.127-.218a.563.563 0 01-.291-.218c-.546-.619-1.128-1.273-1.709-2l-5.382-6.51zm14.982.328l1.818 4.363h-3.673l1.855-4.363zm2.909 6.982c.145.363.218.581.218.69 0 .073-.036.146-.109.219-.037.036-.218.072-.473.072l-.727.037v.473c.873-.037 1.6-.037 2.145-.037.582 0 1.164 0 1.818.037v-.473c-.363-.037-.618-.073-.727-.11-.109-.036-.218-.145-.291-.254-.072-.109-.254-.473-.509-1.054L115.818.073h-.509c-.181.545-.545 1.418-1.091 2.618l-2 4.545c-.363.8-.727 1.564-1.054 2.255-.109.255-.218.4-.327.436-.109.073-.328.11-.655.11h-.218v.508c.545-.036 1.127-.036 1.854-.036.582 0 1.091 0 1.564.037v-.473l-.691-.073c-.254-.036-.4-.073-.473-.109-.072-.036-.109-.146-.109-.255 0-.181.146-.654.473-1.418l.509-1.2h4.218l.837 2.037zm6.4.763c.472.037.945.037 1.382.037.909 0 1.636-.037 2.145-.073a6.99 6.99 0 001.127-.218l.437-1.71h.472c-.109.91-.218 1.782-.29 2.582-.437.073-1.019.11-1.782.11l-3.491-.073c-.473 0-1.2.036-2.182.072v-.363c.4-.182.618-.364.691-.546.073-.181.109-.981.109-2.327v-4c0-1.454-.036-2.29-.109-2.436-.073-.182-.255-.255-.582-.255h-.8V.145a67.7 67.7 0 002.291.037c.509 0 1.2 0 2.073-.037v.473h-.909c-.255 0-.437.073-.473.218-.073.146-.109.764-.109 1.855v4.654l.036 2.073-.036.4zm-73.564 7.564c0-1.2.036-2.109.073-2.69.4-.073.763-.11 1.127-.11.764 0 1.345.146 1.673.437.363.29.509.727.509 1.272 0 .655-.218 1.128-.618 1.491-.437.328-1.128.51-2.073.51h-.655v-.91h-.036zm4.327.11c.364-.437.546-.91.546-1.455 0-.69-.255-1.2-.764-1.564-.4-.29-1.055-.436-1.89-.436l-1.056.036c-.909.037-1.527.037-1.818.037-.181 0-.472 0-.836-.037l-.655-.036h-.618v.473h.51c.4 0 .654.109.763.29.073.146.145.837.145 2.073v4.546c0 .727 0 1.382-.036 1.963 0 .182-.036.328-.109.4-.073.073-.218.182-.545.328v.327l.618-.036c.363-.037.654-.037.909-.037.327 0 .763 0 1.236.037h.582c1.2 0 2.182-.328 2.945-1.018.764-.691 1.164-1.491 1.164-2.4 0-.728-.218-1.31-.69-1.746-.474-.4-1.2-.654-2.255-.727.872-.255 1.49-.619 1.854-1.019zM51.02 23.2c0-.182 0-.437-.037-.764v-3.49h.836c.837 0 1.418.072 1.818.254.364.145.655.4.873.763.218.328.327.764.327 1.31 0 .8-.254 1.418-.727 1.854-.473.473-1.163.69-2 .69-.29 0-.69-.036-1.127-.108.036-.218.036-.364.036-.51zm11.671-4.073a39.81 39.81 0 001.782 2.4l1.418 1.819c.255.327.4.472.51.545a.673.673 0 00.254.073h.181v.473c-.4-.037-.763-.037-1.054-.037-.291 0-.582 0-.873.037l-2.582-3.492c-.472-.654-1.018-1.272-1.563-1.89l.072-.255c.291.036.51.036.619.036.8 0 1.454-.218 1.927-.618.473-.4.69-.982.69-1.672 0-.619-.181-1.128-.581-1.455-.4-.364-.945-.545-1.71-.545-.508 0-1.017.109-1.563.29-.072.764-.073 1.6-.073 2.473v3.527c0 1.71.037 2.655.11 2.873.072.182.363.291.8.291h.581v.473c-.8-.037-1.49-.037-2-.037-.4 0-1.163 0-2.254.037V24h.545c.4 0 .655-.109.728-.29.072-.183.109-1.128.109-2.874v-3.49c0-1.491-.037-2.364-.146-2.546-.073-.182-.363-.255-.873-.255h-.4v-.472c.91.036 1.6.036 2.073.036.328 0 .8 0 1.382-.036.691-.037 1.2-.037 1.527-.037.837 0 1.491.073 1.928.255.436.182.763.436.982.764.218.327.327.727.327 1.2 0 .69-.255 1.272-.727 1.818-.51.509-1.2.872-2.146 1.054zm7.527.328v2.836c0 .655 0 1.127.037 1.418.69.037 1.454.073 2.29.073.546 0 .982-.036 1.382-.073.255-.036.473-.109.764-.182.11-.436.255-.945.364-1.6h.472c-.145 1.055-.181 1.782-.181 2.11v.327c-.546.036-1.091.072-1.637.072l-1.127-.036c-1.273-.036-2.182-.036-2.8-.036-.582 0-1.31 0-2.255.036v-.473h.219c.436 0 .69-.036.8-.109.109-.072.181-.29.218-.582.036-.29.073-.981.073-2.036v-4c0-.654 0-1.2-.037-1.6-.036-.4-.073-.655-.109-.764-.036-.072-.073-.145-.145-.181-.073-.037-.291-.073-.619-.11l-.581-.072V14h.8l.763.036c.437 0 .764.037.982.037l2.8-.037h1.31c.435 0 .908 0 1.381.037-.182.582-.29 1.309-.29 2.218h-.546a13.1 13.1 0 00-.073-1.346c-.582-.218-1.273-.327-2.11-.327-.654 0-1.381.037-2.108.073v4c.472.036.909.036 1.272.036 1.164 0 1.819-.036 1.964-.109.145-.072.218-.327.218-.763v-.473h.473c-.036.727-.036 1.309-.036 1.745 0 .473 0 1.018.036 1.637h-.473v-.437c0-.472-.109-.763-.29-.872-.182-.11-.837-.146-1.928-.146-.4.073-.836.11-1.273.146zm11.346-3.528l1.818 4.364h-3.673l1.855-4.364zm2.909 7.018c.145.364.218.582.218.692 0 .072-.036.145-.109.218-.036.036-.218.072-.473.072l-.727.037v.473c.873-.037 1.6-.037 2.145-.037.582 0 1.164 0 1.819.037v-.473c-.364-.037-.618-.073-.728-.11-.109-.036-.218-.145-.29-.254-.073-.109-.255-.473-.51-1.055l-3.636-8.581h-.51c-.18.545-.545 1.418-1.09 2.618l-2 4.545c-.364.8-.727 1.564-1.055 2.255-.109.255-.218.4-.327.436-.109.073-.327.11-.654.11h-.219v.472c.546-.036 1.128-.036 1.855-.036.582 0 1.09 0 1.564.036v-.473l-.691-.072c-.255-.037-.4-.073-.473-.11-.073-.036-.11-.145-.11-.254 0-.182.146-.654.474-1.418l.509-1.2h4.218l.8 2.072zm10.182-8.435c-.146.508-.218 1.163-.218 2h-.51v-.583c0-.363-.036-.618-.145-.763-.11-.146-.364-.291-.8-.437a4.174 4.174 0 00-1.345-.218c-.764 0-1.382.182-1.819.582-.436.4-.654.91-.654 1.527 0 .4.109.728.29 1.018.183.291.437.473.728.619.29.109.982.218 1.964.327 1.018.109 1.672.218 2.036.4.364.145.618.436.836.764.219.327.328.763.328 1.272 0 .982-.4 1.819-1.237 2.546-.8.69-1.89 1.054-3.272 1.054-.473 0-.946-.036-1.419-.145-.472-.11-.945-.255-1.418-.436.073-.582.11-1.31.11-2.219h.508v.364c0 .473.037.764.073.873.036.109.145.218.327.363.255.182.582.328.946.437.364.109.764.145 1.2.145.909 0 1.636-.218 2.145-.654.51-.437.764-.982.764-1.637 0-.4-.073-.727-.255-.982a1.743 1.743 0 00-.727-.618c-.29-.145-.873-.218-1.709-.29-1.09-.073-1.855-.219-2.255-.4a1.846 1.846 0 01-.909-.837c-.218-.364-.327-.837-.327-1.418 0-.946.327-1.71 1.018-2.328.691-.618 1.637-.909 2.837-.909.472 0 .982.037 1.454.146a5.54 5.54 0 011.455.436zm6.182.181a44.5 44.5 0 00-.073 2.29v4.146c0 1.564.036 2.4.109 2.546.073.145.364.254.836.254h.546v.473c-.873-.036-1.6-.036-2.182-.036-.618 0-1.345 0-2.182.036v-.473h.618c.328 0 .546-.036.618-.109.11-.072.146-.254.182-.509.037-.582.073-1.309.073-2.218v-4.146c0-.836 0-1.563-.036-2.254h-.728c-1.2 0-1.854.036-1.963.073-.11.072-.218.29-.255.654l-.109.982h-.473v-.873c0-.363-.036-.872-.072-1.527 2.618.036 4.181.036 4.618.036L104.4 14c-.109.836-.145 1.636-.182 2.4h-.472l-.073-.945c-.036-.328-.073-.51-.109-.582-.036-.073-.182-.11-.364-.11a26.061 26.061 0 00-1.818-.072h-.545zM56.982 30.618l-.073-1.309a5.116 5.116 0 00-1.345-.654 5.102 5.102 0 00-1.491-.219c-1.31 0-2.364.4-3.164 1.2-.8.8-1.2 1.855-1.2 3.2 0 .946.218 1.782.618 2.51.4.727.982 1.309 1.71 1.745a4.512 4.512 0 002.327.655c.654 0 1.309-.073 1.927-.219a3.66 3.66 0 001.418-.69l.146.145c-.11.218-.182.436-.291.69-.582.292-1.128.51-1.71.619-.581.11-1.163.218-1.745.218-1.2 0-2.254-.218-3.163-.69-.91-.473-1.6-1.092-2.073-1.928-.473-.8-.727-1.745-.727-2.764 0-1.018.254-1.963.727-2.763.473-.8 1.2-1.455 2.073-1.891.909-.436 2-.655 3.309-.655.69 0 1.49.11 2.4.328.472.109.836.181 1.127.254-.218.51-.364 1.237-.4 2.218h-.4zm6.763-.727l1.819 4.364H61.89l1.855-4.364zm2.91 6.982c.145.364.218.582.218.69 0 .073-.037.146-.11.219-.036.036-.217.073-.472.073l-.727.036v.473c.873-.037 1.6-.037 2.145-.037.582 0 1.164 0 1.818.037v-.473c-.363-.036-.618-.036-.727-.109-.109-.036-.218-.145-.29-.255-.074-.109-.255-.472-.51-1.054l-3.636-8.582h-.51c-.181.546-.545 1.418-1.09 2.618l-2 4.546c-.364.8-.728 1.563-1.055 2.254-.109.255-.218.4-.327.437-.11.072-.327.109-.655.109h-.218v.472c.546-.036 1.127-.036 1.855-.036.582 0 1.09 0 1.563.036v-.472l-.69-.073c-.255-.036-.4-.073-.473-.11-.073-.035-.11-.145-.11-.254 0-.181.182-.654.473-1.418l.51-1.2h4.218l.8 2.073zm5.6-7.309v5.054c0 1.164.036 1.964.072 2.4.037.364.11.546.182.618.073.073.328.146.691.182l.473.037v.472c-.546-.036-1.018-.036-1.418-.036-.291 0-.982 0-2.037.036v-.472h.51c.327 0 .509-.037.618-.146.109-.073.145-.254.181-.509.037-.545.073-1.273.073-2.182v-3.636c0-.691 0-1.346-.036-2.036 0-.291-.037-.473-.11-.582a1.098 1.098 0 00-.29-.291c-.11-.073-.291-.11-.546-.11h-.436v-.472c.618.036 1.09.036 1.418.036.364 0 .727 0 1.164-.036.473.582.945 1.164 1.382 1.71.436.545.872 1.126 1.345 1.672l2.51 3.054a73.73 73.73 0 001.963 2.291v-4.582c0-1.963-.037-3.018-.11-3.2-.072-.181-.363-.29-.836-.363l-.545-.037v-.472c.764.036 1.382.036 1.818.036.436 0 1.018 0 1.746-.036v.473h-.546c-.436 0-.69.145-.764.436-.036.182-.072 1.273-.072 3.2v3.273c0 .872.036 1.927.109 3.163-.655-.109-1.018-.182-1.127-.218a.565.565 0 01-.291-.218c-.546-.618-1.128-1.273-1.71-2l-5.381-6.51zM91.2 30.618l-.073-1.309a5.116 5.116 0 00-1.345-.654 5.102 5.102 0 00-1.49-.219c-1.31 0-2.365.4-3.165 1.2-.8.8-1.2 1.855-1.2 3.2 0 .946.219 1.782.619 2.51.4.727.981 1.309 1.709 1.745a4.512 4.512 0 002.327.655c.655 0 1.31-.073 1.927-.219a3.66 3.66 0 001.418-.69l.146.145c-.11.218-.182.436-.291.69-.582.292-1.127.51-1.71.619a7.17 7.17 0 01-1.745.218c-1.2 0-2.254-.218-3.163-.69-.91-.473-1.6-1.092-2.073-1.928-.473-.8-.727-1.745-.727-2.764 0-1.018.254-1.963.727-2.763.473-.8 1.2-1.455 2.073-1.891.909-.436 2-.655 3.309-.655.69 0 1.49.11 2.4.328.473.109.836.181 1.127.254-.218.51-.364 1.237-.4 2.218h-.4zm4.946 2.764v2.836c0 .655 0 1.128.036 1.418.69.037 1.455.073 2.29.073.546 0 .983-.036 1.383-.073.254-.036.472-.109.763-.181.11-.437.255-.946.364-1.6h.473c-.146 1.054-.182 1.782-.182 2.109v.327c-.546.036-1.091.073-1.636.073l-1.128-.037c-1.272-.036-2.181-.036-2.763-.036-.582 0-1.31 0-2.255.036v-.472h.218c.437 0 .691-.037.8-.11.11-.072.182-.29.219-.581.036-.291.072-.982.072-2.037v-4c0-.654 0-1.2-.036-1.6-.036-.436-.073-.654-.11-.763-.036-.073-.072-.146-.145-.182-.072-.037-.29-.073-.618-.11l-.545-.072v-.473h.8l.763.037c.437 0 .764.036.982.036l2.8-.036H100c.437 0 .909 0 1.382.036-.182.582-.291 1.31-.291 2.218h-.473c0-.545-.036-.982-.072-1.345-.582-.218-1.273-.328-2.11-.328-.654 0-1.381.037-2.109.073v4c.473.037.91.037 1.273.037 1.164 0 1.818-.037 1.964-.11.145-.072.218-.327.218-.763v-.473h.473c-.037.727-.037 1.31-.037 1.746 0 .472 0 1.018.037 1.636h-.618v-.436c0-.473-.11-.764-.291-.873-.182-.11-.837-.145-1.928-.145-.4.109-.836.145-1.272.145zm11.563-.291a40.66 40.66 0 001.782 2.4l1.418 1.818c.255.328.4.473.509.546a.677.677 0 00.255.072h.182v.473c-.4-.036-.764-.036-1.055-.036-.291 0-.582 0-.873.036l-2.581-3.49a18.754 18.754 0 00-1.564-1.892l.073-.254c.291.036.509.036.618.036.836 0 1.454-.218 1.927-.618.473-.4.691-.982.691-1.673 0-.618-.182-1.127-.582-1.454-.4-.364-.945-.546-1.709-.546-.509 0-1.018.11-1.563.291-.073.764-.073 1.6-.073 2.473V34.8c0 1.71.036 2.655.109 2.873.073.182.364.29.8.29h.582v.474c-.8-.037-1.491-.037-2-.037-.4 0-1.164 0-2.255.037v-.473h.546c.4 0 .654-.11.727-.291.073-.182.109-1.127.109-2.873v-3.49c0-1.492-.036-2.364-.145-2.546-.073-.182-.364-.255-.873-.255h-.4v-.473c.909.037 1.6.037 2.073.037.327 0 .8 0 1.381-.037.691-.036 1.2-.036 1.528-.036.836 0 1.491.073 1.927.255.436.181.764.436.982.763.218.328.327.728.327 1.2 0 .691-.254 1.273-.727 1.818-.473.51-1.2.873-2.146 1.055zM51.091 47.237v2.51c0 .981.036 1.563.145 1.745.11.181.364.254.837.254h.509v.473c-.91-.036-1.673-.036-2.218-.036-.546 0-1.273 0-2.146.036v-.473h.582c.436 0 .691-.073.764-.254.109-.146.145-.728.145-1.746v-5.49c0-.983-.036-1.564-.145-1.71-.11-.145-.364-.254-.8-.254h-.51v-.473c.8.036 1.528.036 2.182.036l4.182-.072c.437 0 .837.036 1.237.072-.146.51-.255 1.273-.255 2.218h-.473c-.036-.509-.072-.945-.181-1.345a7.546 7.546 0 00-2-.255c-.582 0-1.164.037-1.746.11-.073.618-.073 1.2-.073 1.709v2.327h.837c.727 0 1.345-.036 1.89-.073.182 0 .291-.036.364-.109.073-.073.11-.255.146-.582l.072-.545h.473c-.036.872-.073 1.454-.073 1.709v1.709h-.472v-.546c0-.436-.073-.727-.255-.8-.182-.109-.8-.145-1.927-.145a5.408 5.408 0 00-1.091 0zm7.455-3.019c.327-.618.763-1.09 1.309-1.418.545-.327 1.236-.473 2-.473.836 0 1.6.182 2.218.546a3.565 3.565 0 011.454 1.636c.364.727.546 1.6.546 2.655 0 .982-.146 1.818-.473 2.509-.327.69-.763 1.2-1.345 1.563a3.947 3.947 0 01-1.964.51 4.12 4.12 0 01-2.182-.619c-.618-.4-1.127-1.018-1.527-1.818-.364-.8-.582-1.782-.582-2.872.073-.873.218-1.6.546-2.219zm-1.31 5.6a4.565 4.565 0 001.819 1.891c.763.437 1.672.655 2.727.655 1.673 0 3.09-.546 4.182-1.637 1.09-1.09 1.672-2.436 1.672-4.072 0-1.491-.472-2.728-1.418-3.637-.945-.909-2.29-1.345-3.963-1.345-1.71 0-3.091.473-4.11 1.454-1.018.982-1.563 2.255-1.563 3.855 0 1.09.218 2 .654 2.836zm11.055-8c.982.037 1.71.037 2.182.037.473 0 1.163 0 2.109-.037v.473h-.545c-.473 0-.728.073-.837.255-.109.181-.145.981-.145 2.363v2.873c0 1.055.072 1.782.181 2.182.11.4.4.763.873 1.018.473.29 1.128.436 1.928.436.836 0 1.527-.145 2.072-.436.4-.218.691-.545.837-.982.181-.436.254-1.273.254-2.509v-2.764c0-1.272-.073-2-.182-2.181-.109-.182-.436-.291-.945-.291h-.364v-.437c1.018.037 1.637.037 1.927.037.437 0 .982 0 1.637-.037v.473h-.51c-.4 0-.617.11-.727.327-.109.218-.181.946-.181 2.182v2.727c0 1.237-.073 2.11-.182 2.546-.11.436-.364.836-.691 1.163-.327.364-.764.619-1.31.837-.545.218-1.2.29-1.926.29a6.614 6.614 0 01-2-.29c-.582-.182-1.019-.4-1.31-.691a1.983 1.983 0 01-.618-.982c-.145-.4-.181-1.054-.181-1.963v-3.6c0-1.382-.037-2.146-.11-2.291-.072-.182-.327-.255-.763-.255h-.473v-.473zM82 43.418v5.055c0 1.163.037 1.964.073 2.4.036.364.073.545.182.618.072.073.327.145.69.182l.473.036v.473c-.545-.036-1.018-.036-1.418-.036-.29 0-.982 0-2.036.036v-.473h.509c.327 0 .509-.036.618-.145.11-.073.146-.255.182-.51a32.46 32.46 0 00.073-2.181v-3.636c0-.691 0-1.346-.037-2.037 0-.29-.036-.473-.109-.582a1.1 1.1 0 00-.29-.29c-.11-.073-.292-.11-.546-.11h-.437v-.4c.619.037 1.091.037 1.419.037.363 0 .727 0 1.163-.037.473.582.946 1.164 1.382 1.71.436.545.873 1.127 1.346 1.672l2.509 3.055c.909 1.09 1.563 1.854 1.963 2.29v-4.69c0-1.964-.036-3.018-.109-3.2-.072-.182-.363-.291-.836-.364l-.546-.036v-.437c.764.037 1.382.037 1.819.037.436 0 1.018 0 1.745-.037v.473h-.545c-.437 0-.691.146-.764.436-.037.182-.073 1.273-.073 3.2V49.2c0 .873.036 1.927.11 3.164-.655-.11-1.019-.182-1.128-.218a.565.565 0 01-.29-.219c-.546-.618-1.128-1.272-1.71-2L82 43.418zm13.127 5.528v-4.764c0-.582.037-1.127.073-1.6.691-.11 1.31-.145 1.818-.145 1.455 0 2.582.363 3.346 1.127.763.727 1.127 1.818 1.127 3.236 0 1.637-.473 2.873-1.382 3.71-.763.69-1.818 1.054-3.163 1.054-.51 0-1.091-.037-1.746-.146-.036-.8-.073-1.6-.073-2.472zm-2.181 2.909v.363c.618-.072 1.127-.072 1.49-.072.219 0 .8 0 1.673.036l.91.036c1.781 0 3.236-.545 4.327-1.6 1.091-1.09 1.672-2.436 1.672-4.072 0-.8-.145-1.528-.436-2.146a4.303 4.303 0 00-1.236-1.563c-.546-.437-1.164-.691-1.855-.837a9.404 9.404 0 00-1.963-.182l-1.6.037h-1.964c-.291 0-.8 0-1.6-.037v.473l.582.073c.327.036.545.109.582.145.072.073.108.255.145.618.073.619.073 1.382.073 2.219v2.109c0 1.89-.037 3.2-.11 3.927l-.69.473zm14.872-8.145l1.819 4.363h-3.673l1.854-4.364zm2.91 7.017c.145.364.218.582.218.691 0 .073-.037.146-.109.218-.037.037-.219.073-.473.073l-.727.037v.472c.872-.036 1.6-.036 2.145-.036.582 0 1.164 0 1.818.036v-.472c-.363-.037-.618-.073-.727-.11-.109-.036-.218-.145-.291-.254-.073-.11-.254-.473-.509-1.055l-3.673-8.581h-.509c-.182.545-.545 1.418-1.091 2.618l-2 4.545c-.363.8-.727 1.564-1.054 2.255-.109.254-.219.4-.328.436-.109.073-.327.11-.654.11h-.218v.472c.545-.036 1.127-.036 1.854-.036.582 0 1.127 0 1.564.036v-.473l-.691-.073c-.255-.036-.4-.072-.473-.109-.073-.036-.109-.145-.109-.254 0-.182.146-.655.473-1.418l.509-1.2h4.218l.837 2.072zm7.563-8.254a45.66 45.66 0 00-.073 2.29v4.146c0 1.564.037 2.4.11 2.546.072.145.363.254.836.254h.545v.473c-.872-.036-1.6-.036-2.181-.036-.619 0-1.346 0-2.182.036v-.473h.618c.327 0 .545-.036.618-.109.109-.073.146-.254.182-.509.036-.582.073-1.309.073-2.218v-4.146c0-.836 0-1.563-.037-2.254h-.727c-1.2 0-1.855.036-2 .073-.109.072-.218.29-.255.654l-.109.982h-.472v-.873c0-.363-.037-.872-.073-1.527 2.618.036 4.182.036 4.618.036l4.037-.036c-.11.836-.146 1.636-.182 2.4h-.473l-.073-.946c-.036-.327-.072-.509-.109-.581-.036-.073-.182-.11-.363-.11a26.118 26.118 0 00-1.819-.072h-.509zm5.2 9.237h.473c.436 0 .727-.11.8-.328.073-.218.145-1.273.145-3.127v-2.473c0-1.927-.036-3.018-.109-3.2-.072-.182-.327-.29-.691-.29h-.581v-.474c.8.037 1.6.037 2.4.037.654 0 1.236 0 1.781-.037v.473h-.545c-.364 0-.546.036-.655.11-.072.072-.145.29-.145.617-.036.51-.036 1.455-.036 2.764v2.51c0 1.89.036 2.944.109 3.126.072.182.363.291.8.291h.472v.473c-.581-.036-1.236-.036-1.963-.036-.837 0-1.564 0-2.218.036v-.473h-.037zm6.909-7.492c.328-.618.764-1.09 1.346-1.418.582-.327 1.236-.473 2-.473.836 0 1.6.182 2.218.546a3.57 3.57 0 011.455 1.636c.363.727.545 1.6.545 2.655 0 .982-.145 1.818-.473 2.509-.327.69-.763 1.2-1.345 1.563a3.95 3.95 0 01-1.964.51 4.12 4.12 0 01-2.182-.619c-.618-.4-1.127-1.018-1.527-1.818-.364-.8-.582-1.782-.582-2.872 0-.873.182-1.6.509-2.219zm-1.309 5.6a4.572 4.572 0 001.818 1.891c.764.437 1.673.655 2.728.655 1.672 0 3.091-.546 4.182-1.637 1.09-1.09 1.672-2.436 1.672-4.072 0-1.491-.472-2.728-1.418-3.637-.945-.909-2.291-1.345-3.964-1.345-1.709 0-3.09.473-4.109 1.454-1.018.982-1.563 2.255-1.563 3.855 0 1.09.218 2 .654 2.836zm13.164-6.4v5.055c0 1.163.036 1.964.073 2.4.036.364.109.545.181.618.073.073.328.145.691.182l.473.036v.473c-.545-.036-1.018-.036-1.418-.036-.291 0-.982 0-2.037.036v-.473h.51c.327 0 .509-.036.618-.145.109-.073.145-.255.182-.51.036-.545.072-1.272.072-2.181v-3.636c0-.691 0-1.346-.036-2.037 0-.29-.036-.473-.109-.582a1.109 1.109 0 00-.291-.29c-.109-.073-.291-.11-.546-.11h-.436v-.4c.618.037 1.091.037 1.418.037.364 0 .728 0 1.164-.037.473.582.945 1.164 1.382 1.71.436.545.873 1.127 1.345 1.672L148 48.255a73.362 73.362 0 001.964 2.29v-4.69c0-1.964-.036-3.018-.109-3.2-.073-.182-.364-.291-.836-.364l-.546-.036v-.437c.8.037 1.382.037 1.818.037.437 0 1.018 0 1.746-.037v.473h-.546c-.436 0-.691.146-.763.436-.037.182-.073 1.273-.073 3.2V49.2c0 .873.036 1.927.109 3.164-.655-.11-1.018-.182-1.127-.218a.567.567 0 01-.291-.219c-.546-.618-1.127-1.272-1.709-2l-5.382-6.509zm11.927 6.764l.218.218c-.291.69-.582 1.273-.909 1.818a18.89 18.89 0 01-1.272 1.818l-.619.327-.218-.218a9.565 9.565 0 00.946-1.782c.181-.545.327-1.09.4-1.708.545-.146 1.018-.328 1.454-.473zm4 1.6c.437 0 .728-.11.8-.327.073-.218.146-1.273.146-3.164v-2.473c0-1.963-.037-3.018-.109-3.236-.073-.182-.328-.29-.691-.29h-.582v-.474c.8.037 1.6.037 2.4.037.655 0 1.273 0 1.782-.037v.473h-.582c-.364 0-.582.036-.655.11-.072.072-.145.29-.145.617-.036.51-.036 1.455-.036 2.8v2.51c0 1.89.036 2.945.109 3.127.072.181.363.29.8.29h.472v.473c-.618-.036-1.272-.036-1.963-.036-.837 0-1.564 0-2.255.036v-.436h.509zm6.509-8.291v5.055c0 1.163.037 1.963.073 2.4.037.363.109.545.182.618.073.072.327.145.691.182l.473.036v.473c-.546-.037-1.019-.037-1.455-.037-.291 0-.982 0-2.036.037v-.473h.509c.327 0 .509-.036.618-.145.109-.073.145-.255.182-.51a32.5 32.5 0 00.073-2.181v-3.637c0-.69 0-1.345-.037-2.036 0-.291-.036-.473-.109-.582a1.092 1.092 0 00-.291-.29c-.109-.074-.291-.11-.545-.11h-.437v-.473c.619.037 1.091.037 1.419.037.363 0 .727 0 1.163-.037.473.582.946 1.164 1.346 1.71.436.545.872 1.127 1.309 1.672l2.509 3.055c.909 1.09 1.563 1.854 1.963 2.29v-4.69c0-1.964-.036-3.018-.109-3.237-.072-.181-.363-.29-.836-.363l-.545-.037v-.472c.8.036 1.381.036 1.818.036.472 0 1.054 0 1.745-.036v.472h-.545c-.437 0-.728.146-.764.437-.036.218-.073 1.272-.073 3.2v3.309c0 .872.037 1.963.109 3.2-.654-.11-1.054-.182-1.163-.218a.567.567 0 01-.291-.218c-.546-.619-1.091-1.273-1.709-2l-5.237-6.437zm18.546 1.019l-.073-1.31a5.317 5.317 0 00-1.382-.654 5.092 5.092 0 00-1.491-.219c-1.309 0-2.363.4-3.163 1.2-.8.8-1.2 1.855-1.2 3.2 0 .946.218 1.782.618 2.51a4.63 4.63 0 001.709 1.745 4.543 4.543 0 002.364.654c.654 0 1.309-.072 1.927-.218.473-.109.945-.363 1.455-.727l.145.145c-.109.219-.182.437-.291.691a9.083 9.083 0 01-1.709.655 7.178 7.178 0 01-1.745.218c-1.2 0-2.255-.218-3.164-.69-.909-.474-1.6-1.092-2.109-1.928-.473-.8-.727-1.745-.727-2.764 0-1.018.254-1.927.727-2.763.509-.8 1.2-1.419 2.073-1.891.909-.437 2-.655 3.309-.655.691 0 1.491.11 2.4.327.472.11.836.182 1.127.255-.218.51-.364 1.273-.4 2.218h-.4zm3.018 6.145c.218 0 .436.072.582.254a.8.8 0 01.254.618.854.854 0 01-.254.618.776.776 0 01-.582.255.799.799 0 01-.618-.255.797.797 0 01-.255-.618c0-.254.073-.436.255-.618.182-.145.4-.254.618-.254zm.436-8.582c.327 0 .618.073.909.254.291.146.509.4.655.655.145.29.254.581.254.909 0 .327-.073.618-.254.909-.146.29-.4.509-.655.654-.291.145-.582.255-.909.255a1.64 1.64 0 01-.909-.255c-.291-.145-.509-.4-.654-.654-.146-.291-.255-.582-.255-.91 0-.327.073-.617.255-.908.145-.291.4-.51.654-.655.291-.181.582-.254.909-.254zm0 .254c-.291 0-.545.073-.8.218a1.49 1.49 0 00-.581.582 1.552 1.552 0 00-.219.8c0 .291.073.545.219.8.145.255.327.436.581.582.255.145.509.218.8.218.291 0 .546-.073.8-.218a1.5 1.5 0 00.582-.582 1.56 1.56 0 00.218-.8c0-.29-.073-.545-.218-.8a1.493 1.493 0 00-.582-.582 1.556 1.556 0 00-.8-.218zm-.872.582v-.145h.872c.255 0 .437.036.546.145.109.11.181.218.181.4 0 .146-.036.255-.109.327-.072.11-.218.146-.363.182.109.073.182.218.291.436.109.218.181.364.218.4.036.037.109.073.218.037v.145h-.291a.508.508 0 01-.218-.073c-.073-.036-.109-.181-.218-.4-.073-.218-.146-.363-.218-.4-.037-.036-.146-.072-.255-.072h-.109v.618c0 .072 0 .109.036.145 0 0 .037.037.109.037h.146v.145h-.8v-.145h.073c.072 0 .145 0 .145-.037 0 0 .036-.073.036-.145v-1.455c0-.072.001-.108-.036-.145h-.254zm.581.836h.109c.255 0 .4-.036.509-.109.11-.073.146-.181.146-.327 0-.145-.036-.218-.109-.29-.073-.073-.218-.11-.436-.11-.11 0-.146 0-.182.037-.037 0-.037.036-.037.108v.691z" fill="#fff"/></svg>