<svg id="Capa_1" enable-background="new 0 0 458.333 458.333" height="512" viewBox="0 0 458.333 458.333" width="512" xmlns="http://www.w3.org/2000/svg"><g><path d="m291.846 16.427c-44.849-22.357-77.933-21.413-122.966-.095-12.243 5.28-21.175 16.157-23.973 29.193-1.554 8.814-2.437 30.244-3.192 40.769 58.308-35.951 116.624-35.951 174.947 0 .316-14.824-.694-29.646-3.018-44.29-3.196-11.293-11.155-20.631-21.798-25.577z" fill="#da364c"/><path d="m368.9 386.459-46.649 71.829c-31.161-40.607-60.645-80.565-87.697-119.394-20.524-29.283-39.371-58.079-56.726-86.076-9.703-15.533-18.847-31.06-27.427-46.107-16.502-27.571-26.163-58.691-28.176-90.76-1.291-33.625 10.931-66.367 33.939-90.922-12.856 21.519 19.798 89.787 66.821 161.298 18.478 28.159 38.6 56.816 57.66 83.326 46.833 64.876 88.255 116.806 88.255 116.806z" fill="#ef5261"/><path d="m285.759 277.031c-13.996 21.985-29.359 45.065-46.09 69.241-20.524-29.283-51.232-75.02-68.581-103.012 15.65-22.324 30.976-44.815 45.156-66.513 18.467 28.17 50.483 73.751 69.515 100.284z" fill="#da364c"/><path d="m136.081 458.333c67.933-88.446 127.426-173.27 171.895-251.666 16.412-27.579 26.042-58.66 28.098-90.687 1.12-34.399-11.326-67.859-34.654-93.163 30.339 50.555-211.987 363.726-211.987 363.726z" fill="#ef5261"/></g></svg>