<?xml version="1.0" encoding="utf-8"?>
<!-- Generator: Adobe Illustrator 22.0.1, SVG Export Plug-In . SVG Version: 6.00 Build 0)  -->
<svg version="1.1" id="Layer_1" xmlns="http://www.w3.org/2000/svg" xmlns:xlink="http://www.w3.org/1999/xlink" x="0px" y="0px"
	 viewBox="0 0 432 432" style="enable-background:new 0 0 432 432;" xml:space="preserve">
<style type="text/css">
	.st0{fill:#E44C81;}
	.st1{fill:#FFFFFF;}
</style>
<g>
	<circle class="st0" cx="216" cy="216" r="216"/>
	<path class="st1" d="M332.7,315.3L267.6,240c12.8-15.8,41.1-54.1,41.6-88.4c0.5-26-9.6-51.1-26.9-69
		c-17.1-17.4-39.7-26.5-65.8-26.9l0,0c-0.2,0-0.5,0-0.7,0c-0.2,0-0.5,0-0.7,0l0,0c-26,0.5-48.6,9.6-65.8,26.9
		c-17.6,17.8-27.4,42.9-26.9,69c0.5,34.2,28.8,72.8,41.6,88.4l-65.1,75.3l59.4,51.4l57.5-66.4l57.5,66.4L332.7,315.3z M205,137.7
		c0.9-0.9,3.4-3.4,10.5-3.4c7.1,0.2,9.6,2.7,10.5,3.4c2.7,2.7,4.3,7.5,4.3,12.3c-0.7,5.3-7.1,16.7-14.8,28.1
		c-7.8-11.4-14.2-23.1-14.8-28.1C200.7,145.2,202.3,140.4,205,137.7z"/>
</g>
</svg>
