<?xml version="1.0" encoding="utf-8"?>
<!-- Generator: Adobe Illustrator 22.0.1, SVG Export Plug-In . SVG Version: 6.00 Build 0)  -->
<svg version="1.1" id="Layer_1" xmlns="http://www.w3.org/2000/svg" xmlns:xlink="http://www.w3.org/1999/xlink" x="0px" y="0px"
	 viewBox="0 0 432 432" style="enable-background:new 0 0 432 432;" xml:space="preserve">
<style type="text/css">
	.st0{fill:#E44C81;}
	.st1{fill:#FFFFFF;}
</style>
<g>
	<circle class="st0" cx="216" cy="216" r="216"/>
	<g id="_x36_aS4no.tif">
		<g>
			<g>
				<path class="st1" d="M233.8,362.8c0-21.9,0-43.6,0-65.5c0-13.9,5.3-26.3,14.8-36.1c18-18.5,36.3-36.5,54.6-54.6
					c7.5-7.5,17.1-7.8,25.3-0.9c0.5,0.2,0.7,0.5,1.6,1.1c0-1.6,0-2.7,0-3.9c0-24.7,0-49.5,0-74.2c0-10,5.7-16.9,15.3-18.7
					c10.7-2.1,20.5,6.4,20.8,18c0.2,5.5,0,11.2,0,16.7c0,29,0,58,0,87.2c0,13.2-4.3,24.2-13.7,33.6c-12.8,12.6-25.1,25.3-37.7,38.1
					c-8,8-15.8,16.2-23.7,24.2c-1.6,1.6-2.3,3.2-2.3,5.5c0,10,0,19.9,0,29.9C270.8,362.8,252.3,362.8,233.8,362.8z"/>
				<path class="st1" d="M66.9,125.4c0.5-1.6,1.1-3.2,1.6-4.6c3.2-7.5,10.7-11.6,19.4-10.5c7.3,0.9,13.5,7.1,14.6,14.6
					c0.5,2.5,0.7,5,0.7,7.5c0,23.5,0,47,0,70.6c0,1.1,0,2.3,0,3.7c2.5-1.6,4.6-3.4,7.1-4.3c6.6-2.7,13.2-2.3,18.5,3
					c16.4,16.2,32.9,32.9,49.1,49.3c3.7,3.7,7.3,7.3,10.7,11.2c7.8,9.8,11.2,21.2,11.4,33.8c0.2,21.2,0,42.2,0,63.5
					c-18.5,0-37,0-55.5,0c0-10.3,0-20.5,0-31.1c0-1.1-0.7-2.7-1.6-3.7c-3.2-3.7-6.6-7.1-10-10.5c-18-18.3-36.3-36.5-54.1-55
					c-3.2-3.4-5.9-7.8-8-12.1c-1.8-4.3-2.5-9.4-3.7-13.9C66.9,199.3,66.9,162.3,66.9,125.4z"/>
				<path class="st1" d="M216.2,89c3.2-4.6,6.2-9.4,9.8-13.2c12.1-12.3,26.9-15.8,43.2-10.5c16.2,5.3,25.3,17.1,28.1,33.8
					c1.8,11.2-1.8,21.2-7.8,30.4c-8.2,13-19,23.5-31.3,32.7c-11.9,8.9-24.4,16.7-36.8,25.1c-3.7,2.5-7.5,1.6-11-0.5
					c-8.9-5.7-18-11.2-26.7-17.4c-14.2-10-27.4-21.5-37.7-35.6c-6.2-8.4-10.5-17.6-10.7-28.3c0-20.5,13.9-37.7,34.2-41.6
					c17.8-3.4,36.1,5.5,44.3,21.7C215.1,86.8,215.8,88.1,216.2,89z"/>
			</g>
		</g>
	</g>
</g>
</svg>
