<?xml version="1.0" encoding="utf-8"?>
<!-- Generator: Adobe Illustrator 22.0.1, SVG Export Plug-In . SVG Version: 6.00 Build 0)  -->
<svg version="1.1" id="Layer_1" xmlns="http://www.w3.org/2000/svg" xmlns:xlink="http://www.w3.org/1999/xlink" x="0px" y="0px"
	 viewBox="0 0 183.6 1973.7" style="enable-background:new 0 0 183.6 1973.7;" xml:space="preserve">
<style type="text/css">
	.st0{fill:#E6457F;}
	.st1{fill:#F05A91;}
</style>
<g>
	<g>
		<g>
			<path class="st0" d="M183.6,0v1973.7H0V0H183.6z"/>
		</g>
	</g>
	<g>
		<path class="st1" d="M88.7,474.6v-34.9h10.4v34.9H88.7z M88.7,404.8v-34.9h10.4v34.9H88.7z M88.7,335v-34.9h10.4V335H88.7z
			 M88.7,265.2v-34.9h10.4v34.9H88.7z M88.7,195.4v-34.9h10.4v34.9H88.7z M88.7,125.6V90.7h10.4v34.9H88.7z M88.7,55.8V21h10.4v34.9
			H88.7V55.8z"/>
	</g>
	<g>
		<path class="st1" d="M88.7,893.5v-34.9h10.4v34.9H88.7z M88.7,823.8v-34.9h10.4v34.9H88.7z M88.7,754V719h10.4V754H88.7z
			 M88.7,684.2v-34.9h10.4v34.9H88.7z M88.7,614.4v-34.9h10.4v34.9H88.7z M88.7,544.6v-34.9h10.4v34.9H88.7z M88.7,474.8v-34.9h10.4
			v34.9H88.7z"/>
	</g>
</g>
<g>
	<path class="st1" d="M92.5,1310.5v-34.9h10.4v34.9H92.5z M92.5,1240.7v-34.9h10.4v34.9H92.5z M92.5,1170.9V1136h10.4v34.9H92.5z
		 M92.5,1101.1v-34.9h10.4v34.9H92.5z M92.5,1031.3v-34.9h10.4v34.9H92.5z M92.5,961.6v-34.9h10.4v34.9H92.5z M92.5,891.7v-34.9
		h10.4v34.9H92.5z"/>
</g>
<g>
	<g>
		<path class="st1" d="M92.5,1728.3v-34.9h10.4v34.9H92.5z M92.5,1658.6v-34.9h10.4v34.9H92.5z M92.5,1588.7v-34.9h10.4v34.9H92.5z
			 M92.5,1519v-34.9h10.4v34.9H92.5z M92.5,1449.1v-34.9h10.4v34.9H92.5z M92.5,1379.4v-34.9h10.4v34.9H92.5z M92.5,1309.5v-34.9
			h10.4v34.9H92.5z"/>
	</g>
	<g>
		<path class="st1" d="M92.5,1937.9v-34.9h10.4v34.9H92.5z M92.5,1868.1v-34.9h10.4v34.9H92.5z M92.5,1798.3v-34.9h10.4v34.9H92.5z
			 M92.5,1728.5v-34.9h10.4v34.9H92.5z"/>
	</g>
</g>
</svg>
