<?xml version="1.0" encoding="utf-8"?>
<!-- Generator: Adobe Illustrator 22.0.1, SVG Export Plug-In . SVG Version: 6.00 Build 0)  -->
<svg version="1.1" id="Layer_1" xmlns="http://www.w3.org/2000/svg" xmlns:xlink="http://www.w3.org/1999/xlink" x="0px" y="0px"
	 viewBox="0 0 300 300" style="enable-background:new 0 0 300 300;" xml:space="preserve">
<style type="text/css">
	.st0{fill:#FFFFFF;}
	.st1{fill:#E64880;}
	.st2{fill:url(#SVGID_1_);}
	.st3{fill:url(#SVGID_2_);}
</style>
<g>
	<circle class="st0" cx="150.3" cy="150" r="144.5"/>
	<path class="st1" d="M150.3,300c-82.7,0-150-67.3-150-150c0-82.7,67.3-150,150-150s150,67.3,150,150C300.3,232.7,233,300,150.3,300
		z M150.3,11c-76.7,0-139,62.4-139,139c0,76.7,62.4,139,139,139s139-62.4,139-139C289.4,73.3,227,11,150.3,11z"/>
</g>
<g>
	<rect x="137" y="103.6" class="st0" width="29.8" height="30.6"/>
	
		<linearGradient id="SVGID_1_" gradientUnits="userSpaceOnUse" x1="135.1395" y1="147.5712" x2="163.9974" y2="185.385" gradientTransform="matrix(1 0 0 -1 0 301)">
		<stop  offset="0" style="stop-color:#6C1238"/>
		<stop  offset="1" style="stop-color:#E64880"/>
	</linearGradient>
	<path class="st2" d="M110.1,266.3l-43.3-37.5l77.2-89.2c8.9-10.5,18-25.5,18.9-31.1c0-3.5-1.3-7-3.2-9c-0.6-0.6-2.5-2.6-8.2-2.6
		V39.7c19.4,0,36.3,6.8,48.9,19.6c12.8,13,20,31.3,19.7,50.2c-0.4,27.4-25,58.4-32.6,67.2l-0.1,0.1L110.1,266.3z M162.8,108.4
		L162.8,108.4L162.8,108.4z"/>
	
		<linearGradient id="SVGID_2_" gradientUnits="userSpaceOnUse" x1="161.386" y1="132.7692" x2="113.87" y2="83.5118" gradientTransform="matrix(1 0 0 -1 0 301)">
		<stop  offset="0" style="stop-color:#6C1238"/>
		<stop  offset="1" style="stop-color:#E64880"/>
	</linearGradient>
	<path class="st3" d="M160.8,182.7c-10.9-8.3-21.7-16.7-32.8-24.7l-61.3,70.8l43.3,37.5l63.8-73.8
		C169.5,189.3,165.1,186,160.8,182.7z"/>
	<path class="st1" d="M193.9,266.3l-77.4-89.4C109,168,84.3,137,83.9,109.6c-0.3-18.9,6.9-37.2,19.7-50.2
		c12.7-12.8,29.6-19.6,48.9-19.6V97c-5.6,0-7.5,1.9-8.2,2.6c-1.9,2-3.2,5.5-3.2,9c0.8,5.5,10.1,20.8,18.9,31.1l77.2,89.2
		L193.9,266.3z"/>
	<path class="st0" d="M181.8,75.1c0-6.5-5.3-11.8-11.8-11.8h-35.6c-6.5,0-11.8,5.3-11.8,11.8v10h18.7v23.2h21.7V85h19L181.8,75.1
		L181.8,75.1z"/>
</g>
</svg>
